<?xml version="1.0" encoding="UTF-8" standalone="no"?>
<!-- Created with Inkscape (http://www.inkscape.org/) -->

<svg
   width="12"
   height="12"
   viewBox="0 0 3.175 3.175"
   version="1.1"
   id="svg5"
   xml:space="preserve"
   xmlns="http://www.w3.org/2000/svg"
   xmlns:svg="http://www.w3.org/2000/svg"><defs
     id="defs2" /><g
     id="layer1"
     transform="translate(-42.293751,-85.793755)"><path
       style="fill:#ffffff;stroke-width:0.00844442;fill-opacity:1"
       d="m 42.556489,88.951147 c -0.0795,-0.01725 -0.150155,-0.06645 -0.197026,-0.137196 -0.0691,-0.104306 -0.06588,-0.03753 -0.06562,-1.357114 2.11e-4,-1.090366 0.0011,-1.160815 0.01569,-1.225235 0.03123,-0.138042 0.123708,-0.228993 0.262538,-0.258206 0.06602,-0.01389 0.132559,-0.01516 0.800339,-0.01529 0.400581,-6.4e-5 0.72833,0.0027 0.72833,0.0061 0,0.0035 -0.07311,0.07944 -0.162473,0.168888 l -0.162474,0.162634 h -0.572191 -0.57219 v 1.168411 1.168412 l 1.165566,-0.0042 1.165566,-0.0042 -3.41e-4,-0.549897 -3.39e-4,-0.549897 0.168992,-0.168808 0.168992,-0.16881 v 0.727699 c 0,0.828027 0.0012,0.81082 -0.0615,0.900674 -0.0497,0.07125 -0.120583,0.119588 -0.199779,0.136246 -0.08685,0.01827 -2.397798,0.01804 -2.482073,-2.55e-4 z m 0.573141,-1.070101 v -0.247122 l 0.610107,-0.609935 0.610108,-0.609934 0.247,0.246894 c 0.135851,0.135792 0.247001,0.250729 0.247001,0.255414 0,0.0047 -0.270759,0.27926 -0.601687,0.610163 l -0.601686,0.601642 H 43.385052 43.12963 Z m 1.699376,-1.452377 -0.246952,-0.24706 0.192178,-0.192043 0.192179,-0.192041 0.25117,0.251274 0.25117,0.251276 -0.187966,0.187827 c -0.103382,0.103305 -0.19176,0.187827 -0.196395,0.187827 -0.0046,0 -0.119559,-0.111177 -0.255384,-0.24706 z"
       id="path179" /></g></svg>
