<?xml version="1.0" encoding="UTF-8" standalone="no"?>
<!-- Created with Inkscape (http://www.inkscape.org/) -->

<svg
   width="24mm"
   height="48mm"
   viewBox="0 0 24 48"
   version="1.1"
   id="svg130"
   xml:space="preserve"
   xmlns="http://www.w3.org/2000/svg"
   xmlns:svg="http://www.w3.org/2000/svg"><defs
     id="defs127" /><g
     id="layer1"><path
       style="fill:#ffffff;stroke-width:0.0404355;fill-opacity:1"
       d="m 2.4287764,35.493786 0.00823,-0.960343 0.7986009,-0.01096 0.7986008,-0.01096 V 33.62279 32.734064 h 0.626095 0.6260953 l 0.01145,-8.380254 0.01145,-8.380255 0.090076,-0.26283 C 5.708615,14.808398 6.5057076,14.151126 7.3987593,14.062059 l 0.2948604,-0.02941 0.011162,-0.616641 0.011162,-0.616641 h 1.0704875 1.070487 v -0.62675 -0.62675 h 2.1430808 2.143081 v 0.62675 0.62675 h 1.070487 1.070487 l 0.01116,0.616641 0.01116,0.616641 0.280694,0.02774 c 0.908081,0.08973 1.700375,0.738819 2.014441,1.650337 l 0.09056,0.26283 0.01076,8.380255 0.01076,8.380254 h 0.626096 0.626095 v 0.888726 0.888726 l 0.7986,0.01096 0.798601,0.01096 0.0082,0.960343 0.0082,0.960343 H 20.004275 18.42917 v -0.970452 -0.970452 h -1.43546 -1.435459 v -1.152411 -1.152411 h -0.424209 -0.424209 l -0.01047,2.092536 -0.01047,2.092536 -1.08165,0.01077 -1.081649,0.01077 v -2.103306 -2.103305 h -0.525661 -0.525661 v 2.103305 2.103306 l -1.08165,-0.01077 -1.0816489,-0.01077 -0.010473,-2.092536 -0.010473,-2.092536 H 8.8658849 8.4416762 v 1.152411 1.152411 H 7.0062165 5.5707567 v 0.970452 0.970452 H 3.9956514 2.4205461 Z M 10.82737,25.341148 c 0.0158,-0.23176 0.03735,-0.309004 0.09871,-0.353811 0.115072,-0.08404 2.073205,-0.08404 2.188277,0 0.06136,0.04481 0.08291,0.122051 0.09871,0.353811 l 0.02022,0.296488 0.602558,0.01122 0.602557,0.01122 -0.02539,-0.357651 c -0.04176,-0.588281 -0.238172,-1.077936 -0.521921,-1.301133 -0.05945,-0.04676 -0.195383,-0.125322 -0.302077,-0.174578 -0.188224,-0.08689 -0.234869,-0.08955 -1.569677,-0.08955 h -1.375689 l -0.261948,0.12977 c -0.298081,0.147669 -0.4563327,0.323463 -0.5906901,0.656167 -0.1371612,0.339646 -0.2294693,1.028067 -0.1486829,1.108854 0.015411,0.01541 0.2838013,0.02299 0.596423,0.01685 l 0.568404,-0.01117 z M 9.7356117,20.461894 V 19.956451 H 8.9875552 8.2394988 v 0.505443 0.505444 h 0.7480564 0.7480565 z m 6.0653233,0 v -0.505443 h -0.748057 -0.748056 v 0.505443 0.505444 h 0.748056 0.748057 z"
       id="path6103" /></g></svg>
