<?xml version="1.0" encoding="UTF-8" standalone="no"?>
<!-- Created with Inkscape (http://www.inkscape.org/) -->

<svg
   width="24mm"
   height="48mm"
   viewBox="0 0 24 48"
   version="1.1"
   id="svg130"
   xml:space="preserve"
   xmlns="http://www.w3.org/2000/svg"
   xmlns:svg="http://www.w3.org/2000/svg"><defs
     id="defs127" /><g
     id="layer1"><path
       style="fill:#ffffff;stroke-width:0.0108946;fill-opacity:1"
       d="M 9.9604001,38.69619 C 9.1735285,38.629484 8.4623604,38.17153 8.0843307,37.488105 7.9507341,37.24658 7.870335,37.011109 7.8200355,36.714041 7.8017565,36.606089 7.8004786,36.372934 7.7973387,32.574079 l -0.00333,-4.025568 -1.4102125,-1.127595 -1.4102126,-1.127595 0.00318,-1.710457 c 0.00338,-1.820078 0.00238,-1.781662 0.056602,-2.168033 0.1429605,-1.018659 0.5499296,-2.002058 1.1722421,-2.832605 0.8195195,-1.093743 1.9706849,-1.887415 3.2876982,-2.266707 0.092367,-0.0266 0.1692362,-0.04966 0.1708214,-0.05125 0.00158,-0.0016 -0.04911,-0.03224 -0.1126549,-0.06811 -0.9459878,-0.534086 -1.638575,-1.430681 -1.901845,-2.462049 -0.09383,-0.367586 -0.1212933,-0.594871 -0.1211102,-1.002307 1.525e-4,-0.336912 0.013863,-0.486067 0.071107,-0.773519 0.2291196,-1.150525 0.9535944,-2.135622 1.9905447,-2.70662 0.4477091,-0.246532 0.9425221,-0.4021994 1.4783391,-0.4650843 0.208138,-0.024428 0.663432,-0.024428 0.871571,0 0.660553,0.077524 1.244326,0.2908173 1.781273,0.6508233 1.348343,0.904022 2.004513,2.502753 1.683019,4.100603 -0.22342,1.110414 -0.941096,2.090095 -1.947257,2.658153 -0.06354,0.03588 -0.114249,0.06652 -0.112675,0.06809 0.0016,0.0016 0.0858,0.02703 0.187163,0.05657 0.851626,0.248175 1.600864,0.64847 2.292414,1.224765 0.197027,0.164191 0.577186,0.542335 0.740962,0.737037 0.779499,0.926689 1.263046,2.014057 1.415711,3.183554 0.04772,0.365587 0.0475,0.356369 0.05108,2.122134 l 0.0035,1.70501 -1.356182,1.083526 -1.356183,1.083526 -9e-6,4.004269 c -6e-6,2.579841 -0.0039,4.0469 -0.01089,4.12411 -0.09012,0.992235 -0.817878,1.817908 -1.809776,2.05328 -0.256853,0.06095 -0.191317,0.05882 -1.87805,0.06106 -0.856863,0.0011 -1.605543,-0.002 -1.6637348,-0.0069 z"
       id="path266" /></g></svg>
