<?xml version="1.0" encoding="UTF-8" standalone="no"?>
<!-- Created with Inkscape (http://www.inkscape.org/) -->

<svg
   width="16"
   height="16"
   viewBox="0 0 4.2333332 4.2333333"
   version="1.1"
   id="svg5"
   xmlns="http://www.w3.org/2000/svg"
   xmlns:svg="http://www.w3.org/2000/svg">
  <defs
     id="defs2" />
  <g
     id="layer1">
    <g
       aria-label="G"
       id="text147"
       style="font-weight:bold;font-size:5.4836px;font-family:'DejaVu Sans';-inkscape-font-specification:'DejaVu Sans Bold';fill:#ffffff;stroke-width:0.931837;stroke-linecap:round;stroke-linejoin:round">
      <path
         d="m 2.2208581,1.8452257 v 0.4825568 h 1.2941296 c -0.1041884,0.7896384 -0.6635156,1.288646 -1.3928344,1.288646 -0.3783685,0 -0.7402861,-0.1590244 -1.0034989,-0.438688 C 0.84447442,2.8871097 0.69641722,2.5142249 0.69641722,2.1084385 c 0,-0.5428764 0.2577292,-1.014466 0.69641718,-1.29412964 0.219344,-0.1425736 0.4825568,-0.2138604 0.7677041,-0.2138604 0.4441716,0 0.82254,0.1864424 1.2009084,0.57029444 L 3.7014301,0.82527606 C 3.2408077,0.35917005 2.7582509,0.13434244 2.1769893,0.13434244 c -0.5648109,0 -1.0583349,0.20289321 -1.42573608,0.57577802 C 0.37836841,1.0884889 0.1754752,1.5820129 0.1754752,2.1139221 c 0,0.5319092 0.20289321,1.0254332 0.57577802,1.4038016 0.36740118,0.3728848 0.84995798,0.5812616 1.37090008,0.5812616 0.7457696,0 1.3763836,-0.3948192 1.7108832,-1.0473676 0.1535408,-0.3070816 0.2248276,-0.658032 0.2248276,-1.0747856 0,-0.043869 0,-0.087738 0,-0.1316064 z"
         style="font-family:'ITC Bauhaus';-inkscape-font-specification:'ITC Bauhaus Bold'"
         id="path1044" />
    </g>
  </g>
</svg>
