<?xml version="1.0" encoding="UTF-8" standalone="no"?>
<!-- Created with Inkscape (http://www.inkscape.org/) -->

<svg
   width="16"
   height="16"
   viewBox="0 0 4.2333332 4.2333333"
   version="1.1"
   id="svg5"
   xmlns="http://www.w3.org/2000/svg"
   xmlns:svg="http://www.w3.org/2000/svg">
  <defs
     id="defs2" />
  <g
     aria-label="?"
     id="text20223"
     style="font-weight:bold;font-size:3.75627px;font-family:System-ui;-inkscape-font-specification:'System-ui Bold';fill:#ffffff;stroke-width:0.0136947;stroke-linejoin:bevel;paint-order:stroke fill markers">
    <path
       d="m 1.8931671,2.5486401 h 0.47329 V 2.3983893 c 0,-0.3042579 0.5446591,-0.4432398 0.5446591,-0.9766302 0,-0.4019209 -0.3080141,-0.6460784 -0.8151106,-0.6460784 -0.2629389,0 -0.5409028,0.0676129 -0.7737916,0.18405722 L 1.4349021,1.3240961 c 0.180301,-0.086394 0.3606019,-0.1277132 0.5371466,-0.1277132 0.277964,0 0.4394836,0.1089319 0.4394836,0.2892328 0,0.319283 -0.5183652,0.47329 -0.5183652,0.9127736 z m 0.236645,0.9090173 c 0.1878135,0 0.3192829,-0.1352257 0.3192829,-0.3192829 0,-0.1953261 -0.1277132,-0.3305518 -0.3192829,-0.3305518 -0.1915698,0 -0.3230392,0.1352257 -0.3230392,0.3305518 0,0.1840572 0.1352257,0.3192829 0.3230392,0.3192829 z"
       id="path20755" />
  </g>
</svg>
