<?xml version="1.0" encoding="UTF-8" standalone="no"?>
<!-- Created with Inkscape (http://www.inkscape.org/) -->

<svg
   width="16"
   height="16"
   viewBox="0 0 4.2333332 4.2333333"
   version="1.1"
   id="svg5"
   xmlns="http://www.w3.org/2000/svg"
   xmlns:svg="http://www.w3.org/2000/svg">
  <defs
     id="defs2" />
  <path
     style="fill:#ffffff;fill-opacity:1;stroke:none;stroke-width:0.185208;stroke-linejoin:bevel;stroke-opacity:1;paint-order:stroke fill markers"
     id="path1135"
     d="m 2.1166666,-0.50851178 0.3327753,0.5763839 0.3327754,0.57638386 -0.6655507,-7e-8 -0.6655508,4e-8 0.3327754,-0.57638383 z"
     transform="matrix(0.84700546,0,0,0.84700546,0.32383842,0.7832153)" />
  <path
     style="fill:#ffffff;fill-opacity:1;stroke:none;stroke-width:0.185208;stroke-linejoin:bevel;stroke-opacity:1;paint-order:stroke fill markers"
     id="path1617"
     d="m 2.1166666,-0.50851178 0.3327753,0.5763839 0.3327754,0.57638386 -0.6655507,-7e-8 -0.6655508,4e-8 0.3327754,-0.57638383 z"
     transform="matrix(0,0.84700546,-0.84700546,0,3.464608,0.33165152)" />
  <path
     style="fill:#ffffff;fill-opacity:1;stroke:none;stroke-width:0.185208;stroke-linejoin:bevel;stroke-opacity:1;paint-order:stroke fill markers"
     id="path1619"
     d="m 2.1166666,-0.50851178 0.3327753,0.5763839 0.3327754,0.57638386 -0.6655507,-7e-8 -0.6655508,4e-8 0.3327754,-0.57638383 z"
     transform="matrix(-0.84700546,0,0,-0.84700546,3.9016279,3.460076)" />
  <path
     style="fill:#ffffff;fill-opacity:1;stroke:none;stroke-width:0.185208;stroke-linejoin:bevel;stroke-opacity:1;paint-order:stroke fill markers"
     id="path1621"
     d="m 2.1166666,-0.50851178 0.3327753,0.5763839 0.3327754,0.57638386 -0.6655507,-7e-8 -0.6655508,4e-8 0.3327754,-0.57638383 z"
     transform="matrix(0,-0.84700546,0.84700546,0,0.76085834,3.9116397)" />
</svg>
